ModelForces
version=1
nRows=4
nColumns=155
inDegrees=no

This file contains the forces exerted on a model during a simulation.

A force is a generalized force, meaning that it can be either a force (N) or a torque (Nm).

Units are S.I. units (second, meters, Newtons, ...)
Angles are in degrees.

endheader
time	glut_med1_r	glut_med2_r	glut_med3_r	glut_min1_r	glut_min2_r	glut_min3_r	semimem_r	semiten_r	bifemlh_r	bifemsh_r	sar_r	add_long_r	add_brev_r	add_mag1_r	add_mag2_r	add_mag3_r	tfl_r	pect_r	grac_r	glut_max1_r	glut_max2_r	glut_max3_r	iliacus_r	psoas_r	quad_fem_r	gem_r	peri_r	rect_fem_r	vas_med_r	vas_int_r	vas_lat_r	med_gas_r	lat_gas_r	soleus_r	tib_post_r	flex_dig_r	flex_hal_r	tib_ant_r	per_brev_r	per_long_r	per_tert_r	ext_dig_r	ext_hal_r	glut_med1_l	glut_med2_l	glut_med3_l	glut_min1_l	glut_min2_l	glut_min3_l	semimem_l	semiten_l	bifemlh_l	bifemsh_l	sar_l	add_long_l	add_brev_l	add_mag1_l	add_mag2_l	add_mag3_l	tfl_l	pect_l	grac_l	glut_max1_l	glut_max2_l	glut_max3_l	iliacus_l	psoas_l	quad_fem_l	gem_l	peri_l	rect_fem_l	vas_med_l	vas_int_l	vas_lat_l	med_gas_l	lat_gas_l	soleus_l	tib_post_l	flex_dig_l	flex_hal_l	tib_ant_l	per_brev_l	per_long_l	per_tert_l	ext_dig_l	ext_hal_l	ercspn_r	ercspn_l	intobl_r	intobl_l	extobl_r	extobl_l	femur_lat_meniscii_r.femur_lat_r.force.X	femur_lat_meniscii_r.femur_lat_r.force.Y	femur_lat_meniscii_r.femur_lat_r.force.Z	femur_lat_meniscii_r.femur_lat_r.torque.X	femur_lat_meniscii_r.femur_lat_r.torque.Y	femur_lat_meniscii_r.femur_lat_r.torque.Z	femur_lat_meniscii_r.meniscus_lat_r.force.X	femur_lat_meniscii_r.meniscus_lat_r.force.Y	femur_lat_meniscii_r.meniscus_lat_r.force.Z	femur_lat_meniscii_r.meniscus_lat_r.torque.X	femur_lat_meniscii_r.meniscus_lat_r.torque.Y	femur_lat_meniscii_r.meniscus_lat_r.torque.Z	femur_med_meniscii_r.femur_med_r.force.X	femur_med_meniscii_r.femur_med_r.force.Y	femur_med_meniscii_r.femur_med_r.force.Z	femur_med_meniscii_r.femur_med_r.torque.X	femur_med_meniscii_r.femur_med_r.torque.Y	femur_med_meniscii_r.femur_med_r.torque.Z	femur_med_meniscii_r.meniscus_med_r.force.X	femur_med_meniscii_r.meniscus_med_r.force.Y	femur_med_meniscii_r.meniscus_med_r.force.Z	femur_med_meniscii_r.meniscus_med_r.torque.X	femur_med_meniscii_r.meniscus_med_r.torque.Y	femur_med_meniscii_r.meniscus_med_r.torque.Z	femur_med_tibia_r.tibia_upper_r.force.X	femur_med_tibia_r.tibia_upper_r.force.Y	femur_med_tibia_r.tibia_upper_r.force.Z	femur_med_tibia_r.tibia_upper_r.torque.X	femur_med_tibia_r.tibia_upper_r.torque.Y	femur_med_tibia_r.tibia_upper_r.torque.Z	femur_med_tibia_r.femur_med_r.force.X	femur_med_tibia_r.femur_med_r.force.Y	femur_med_tibia_r.femur_med_r.force.Z	femur_med_tibia_r.femur_med_r.torque.X	femur_med_tibia_r.femur_med_r.torque.Y	femur_med_tibia_r.femur_med_r.torque.Z	femur_lat_tibia_r.tibia_upper_r.force.X	femur_lat_tibia_r.tibia_upper_r.force.Y	femur_lat_tibia_r.tibia_upper_r.force.Z	femur_lat_tibia_r.tibia_upper_r.torque.X	femur_lat_tibia_r.tibia_upper_r.torque.Y	femur_lat_tibia_r.tibia_upper_r.torque.Z	femur_lat_tibia_r.femur_lat_r.force.X	femur_lat_tibia_r.femur_lat_r.force.Y	femur_lat_tibia_r.femur_lat_r.force.Z	femur_lat_tibia_r.femur_lat_r.torque.X	femur_lat_tibia_r.femur_lat_r.torque.Y	femur_lat_tibia_r.femur_lat_r.torque.Z	aACL_R	pACL_R	aPCL_R	pPCL_R	aMCL_R	mMCL_R	pMCL_R	aLCL_R	mLCL_R	pLCL_R	aPCL_L	pPCL_L	aMCL_L	aLCL_L
      0.11068288	     10.34113845	     11.14878858	     12.02364283	      5.09005389	      5.83756898	      6.48918650	    113.79483291	    167.49682568	    223.67744810	    359.76468070	    126.21360066	     11.13251809	      7.87998318	      0.00000000	      4.79956475	      8.36837692	      5.04327515	      3.87220973	    100.10257022	      7.20768425	     10.97515851	      8.28099923	     32.75264184	     24.46397302	      6.98395385	      4.51519574	      4.54687425	     38.29734893	      0.00000000	      0.00000000	      0.00000000	     29.09722796	      0.66359708	      0.00000000	      0.00000000	      1.21953067	      0.00000000	     30.04980394	      3.72395526	      4.57779415	     12.81227119	     17.54349212	      5.34668625	     10.34113845	     11.14878858	     12.02364283	      5.09005389	      5.83756898	      6.48918650	      0.00000000	      8.39785768	     14.87964354	     14.01891997	      2.90054291	     11.13251809	      7.87998318	      0.00000000	      4.79956475	      8.36837692	      6.78010539	      3.87220973	      3.00860461	      7.20768425	     10.97515851	      8.28099923	     32.75264184	     24.46397302	      6.98395385	      4.51519574	      4.54687425	     23.13716246	      0.00000000	      0.00000000	      0.00000000	     17.10868006	      8.74092073	     58.14723440	     57.47109495	      7.63758645	      7.01496263	     16.73413824	      9.36459095	     21.68834199	      3.77683462	     11.81459235	      3.98196895	     47.94013553	     47.94013553	     18.18726541	     18.18726541	     35.14386556	     35.14386556	     54.67203828	    277.90243653	     38.08438428	    -22.35568460	      1.39184671	     21.37281014	    -54.67203828	   -277.90243653	    -38.08438428	      8.36816923	     -1.90072226	      2.42024172	    -27.32764433	     61.16096497	      8.75488143	     -2.13793805	      0.63929369	    -11.18131408	     27.32764433	    -61.16096497	     -8.75488143	     -1.08313540	     -0.67413301	      1.37038245	   -107.60542357	   -512.01159193	    115.79638756	    -12.13644230	      2.64207426	      0.42917292	    107.60542357	    512.01159193	   -115.79638756	     57.45967842	     -1.65863203	     46.03652395	    -36.55394384	   -128.95289177	    -32.18053662	      4.35792466	     -1.28648572	      0.20555886	     36.55394384	    128.95289177	     32.18053662	    -16.39506760	      0.87634983	     15.11094323	      7.60083000	    -13.00237686	     25.49867050	     59.03324160	      0.00000000	      0.00000000	      0.00000000	      0.00000000	      0.00000000	      0.00000000	      0.00000000	      0.00000000	      0.00000001	      0.00000000
      0.11178952	     10.87824295	     11.06820450	     11.93674322	      5.05452569	      5.79841344	      6.44865838	    113.12201776	    167.06919237	    220.19983828	    355.68048380	    126.14203312	     11.05099606	      7.82547562	      0.00000000	      4.77511896	      8.30544694	      5.02914843	      4.02786488	     99.89431689	      7.15559091	     10.89504183	      8.21979300	     32.60168487	     24.29205738	      6.94619383	      4.49040381	      4.71026595	     38.05045580	      0.00000000	      0.00000000	      0.00000000	     31.68666726	      0.63818840	      0.00000000	      0.00000000	      0.83688620	      0.00000000	     27.17137155	      4.14213910	      4.81527653	     14.34990169	     17.70140516	      5.31552572	     10.87824295	     11.06820450	     11.93674322	      5.05452569	      5.79841344	      6.44865838	      0.00000000	      8.33401646	     14.85946153	     13.91893375	      2.88038848	     11.05099606	      7.82547562	      0.00000000	      4.77511896	      8.30544694	      6.74283715	      4.02786488	      2.98735099	      7.15559091	     10.89504183	      8.21979300	     32.60168487	     24.29205738	      6.94619383	      4.49040381	      4.71026595	     22.97857524	      0.00000000	      0.00000000	      0.00000000	     17.44288933	      8.86382458	     58.14531941	     57.34503807	      7.53293643	      6.90346557	     16.68984508	      9.31611794	     21.63400154	      3.75056226	     11.88989136	      3.99713896	     47.60481817	     47.60481817	     18.05138596	     18.05138596	     35.01880284	     35.01880284	     58.69989079	    281.70914295	     36.77736973	    -21.88990097	      1.48257335	     23.01055709	    -58.69989079	   -281.70914295	    -36.77736973	      8.39892885	     -1.99090575	      2.41596148	    -25.57513677	     61.46839851	      9.52561439	     -2.44702109	      0.59562202	    -10.45453160	     25.57513677	    -61.46839851	     -9.52561439	     -1.07047849	     -0.64486098	      1.32820246	   -121.69788474	   -540.50165199	    122.70933049	    -12.84555404	      2.95479294	      0.29858036	    121.69788474	    540.50165199	   -122.70933049	     60.85106781	     -1.90056239	     51.95484495	    -37.24949760	   -129.14538345	    -32.11156888	      4.34944340	     -1.30978341	      0.22372646	     37.24949760	    129.14538345	     32.11156888	    -16.36499633	      0.89424500	     15.38554439	      7.31945294	    -13.01016726	     25.14970852	     59.15702366	      0.00000000	      0.00000000	      0.00000000	      0.00000000	      0.00000000	      0.00000000	      0.00000000	      0.00000000	      0.00000001	      0.00000000
      0.11268734	     11.24400724	     11.00369672	     11.86709114	      5.02609333	      5.76708283	      6.41566615	    112.71201244	    166.95511443	    217.59483002	    353.73248691	    126.29802775	     10.98576691	      7.78185252	      0.00000000	      4.75459961	      8.25497919	      5.02194843	      4.08682337	     99.90825553	      7.11385631	     10.83093028	      8.17081847	     32.48093068	     24.15452649	      6.91413153	      4.47055811	      4.83357035	     37.93824553	      0.00000000	      0.00000000	      0.00000000	     33.95957370	      0.64266008	      0.00000000	      0.00000000	      0.54980760	      0.00000000	     29.38141653	      4.48965545	      5.01501907	     15.03280805	     17.85709516	      5.29234097	     11.24400724	     11.00369672	     11.86709114	      5.02609333	      5.76708283	      6.41566615	      0.00000000	      8.28293402	     14.84079439	     13.83892541	      2.86425900	     10.98576691	      7.78185252	      0.00000000	      4.75459961	      8.25497919	      6.71289761	      4.08682337	      2.97034316	      7.11385631	     10.83093028	      8.17081847	     32.48093068	     24.15452649	      6.91413153	      4.47055811	      4.83357035	     22.85052366	      0.00000000	      0.00000000	      0.00000000	     17.69904581	      8.95782042	     58.13665320	     57.24133103	      7.45080019	      6.81611166	     16.65133080	      9.27637637	     21.58864740	      3.72953184	     11.93926112	      4.00404744	     47.33647424	     47.33647424	     17.94266120	     17.94266120	     34.91877321	     34.91877321	     57.13888830	    273.66887603	     37.21174361	    -21.88158585	      1.43682634	     22.36692346	    -57.13888830	   -273.66887603	    -37.21174361	      8.19970726	     -1.95083220	      2.42188378	    -22.99266556	     59.56679138	     10.37970690	     -2.84765997	      0.52974315	     -9.39073053	     22.99266556	    -59.56679138	    -10.37970690	     -1.00211033	     -0.59558475	      1.24074044	   -131.84958789	   -552.90370813	    125.35941979	    -13.14164672	      3.16249838	      0.16443718	    131.84958789	    552.90370813	   -125.35941979	     62.17059344	     -2.07685356	     56.19114804	    -37.74422975	   -125.44470597	    -31.67583407	      4.23584884	     -1.32205628	      0.18994250	     37.74422975	    125.44470597	     31.67583407	    -16.09641997	      0.90621455	     15.58969771	      7.93644814	    -12.19346251	     26.81874490	     63.32239125	      0.00000000	      0.00000000	      0.00000000	      0.00000000	      0.00000000	      0.00000000	      0.00000000	      0.00000000	      0.00000001	      0.00000000
      0.11328495	     11.45751400	     10.96118828	     11.82115364	      5.00736062	      5.74644285	      6.39367107	    112.49658249	    166.97232300	    215.95209330	    352.84169541	    126.45573377	     10.94279595	      7.75311037	      0.00000000	      4.74065001	      8.22167923	      5.02100960	      4.10653272	     99.97348879	      7.08634001	     10.78869274	      8.13855526	     32.40139750	     24.06393809	      6.89224576	      4.45748063	      4.91134025	     37.83116200	      0.00000000	      0.00000000	      0.00000000	     35.55237512	      0.66028456	      0.00000000	      0.00000000	      0.37159432	      0.00000000	     29.18944254	      4.72246713	      5.15117510	     10.48961353	     17.95594480	      5.27587991	     11.45751400	     10.96118828	     11.82115364	      5.00736062	      5.74644285	      6.39367107	      0.00000000	      8.24928227	     14.82726096	     13.78621578	      2.85363188	     10.94279595	      7.75311037	      0.00000000	      4.74065001	      8.22167923	      6.69311798	      4.10653272	      2.95913797	      7.08634001	     10.78869274	      8.13855526	     32.40139750	     24.06393809	      6.89224576	      4.45748063	      4.91134025	     22.76561952	      0.00000000	      0.00000000	      0.00000000	     17.86242507	      9.01765818	     58.12753820	     57.17162687	      7.39751955	      6.75953747	     16.62447328	      9.24973666	     21.55784717	      3.71567377	     11.96625229	      4.00608570	     47.15967647	     47.15967647	     17.87103581	     17.87103581	     34.85289541	     34.85289541	     55.79150296	    269.85649661	     36.26289042	    -21.38366992	      1.41043537	     21.80123999	    -55.79150296	   -269.85649661	    -36.26289042	      8.05128326	     -1.91434382	      2.46094225	    -21.55575366	     59.47847051	     10.89120224	     -3.06137209	      0.49510097	     -8.79010533	     21.55575366	    -59.47847051	    -10.89120224	     -0.98541520	     -0.57089399	      1.19466314	   -136.51637455	   -553.61829946	    124.78504737	    -13.12735680	      3.25398253	      0.09332138	    136.51637455	    553.61829946	   -124.78504737	     61.92865767	     -2.16777130	     58.11495943	    -36.73356660	   -121.15190524	    -30.70594445	      4.09026819	     -1.28917589	      0.19517145	     36.73356660	    121.15190524	     30.70594445	    -15.59128776	      0.88320906	     15.16527849	      7.78176800	    -12.17402269	     28.33830238	     66.68293842	      0.00000000	      0.00000000	      0.00000000	      0.00000000	      0.00000000	      0.00000000	      0.00000000	      0.00000000	      0.00000001	      0.00000000
